<svg id="svg" version="1.1" xmlns="http://www.w3.org/2000/svg" xmlns:xlink="http://www.w3.org/1999/xlink" width="400" height="300" viewBox="0, 0, 400,300"><g id="svgg"><path id="path0" d="M194.599 121.355 C 188.257 122.598,182.018 126.425,178.376 131.306 C 177.893 131.953,177.404 132.554,177.289 132.640 C 176.280 133.396,173.820 139.459,172.876 143.515 C 172.480 145.215,172.432 151.681,172.806 152.918 C 172.950 153.397,173.236 154.531,173.441 155.439 C 173.791 156.987,174.026 157.649,175.141 160.222 C 177.668 166.053,183.906 171.731,190.398 174.110 C 194.242 175.519,195.305 175.694,200.000 175.694 C 205.145 175.694,207.471 175.216,211.666 173.297 C 218.635 170.110,224.598 163.125,226.399 156.039 C 226.672 154.966,227.031 153.616,227.196 153.038 C 228.642 147.993,225.881 136.028,222.431 132.387 C 222.225 132.169,222.056 131.889,222.056 131.766 C 222.056 130.498,214.396 124.477,210.953 123.037 C 206.379 121.125,199.421 120.409,194.599 121.355 M204.611 129.023 C 222.268 132.854,225.227 157.496,209.053 166.007 C 205.618 167.815,196.011 168.825,194.703 167.517 C 194.497 167.311,194.082 167.142,193.781 167.142 C 193.160 167.142,189.562 165.373,188.490 164.540 C 186.435 162.946,185.502 161.999,184.102 160.090 C 182.274 157.597,181.938 156.898,180.641 152.889 C 180.131 151.315,180.134 145.447,180.645 143.885 C 182.122 139.369,182.799 138.029,184.796 135.667 C 187.567 132.392,191.885 129.720,195.473 129.061 C 196.449 128.881,197.326 128.655,197.423 128.557 C 197.686 128.293,202.763 128.622,204.611 129.023 M198.650 134.920 C 188.336 136.590,183.373 147.189,188.893 155.757 C 192.185 160.866,199.303 163.173,204.746 160.894 C 205.210 160.699,205.666 160.540,205.758 160.540 C 206.815 160.540,210.575 156.965,211.782 154.814 C 216.897 145.692,208.711 133.290,198.650 134.920 M100.649 160.615 C 100.759 161.152,100.920 162.198,101.006 162.941 C 101.420 166.493,103.040 174.464,103.811 176.744 C 103.950 177.157,104.294 178.305,104.575 179.295 C 105.034 180.918,106.787 185.878,107.437 187.397 C 108.687 190.315,109.186 191.400,110.547 194.149 C 122.434 218.166,143.238 236.250,168.642 244.646 C 172.250 245.839,173.957 246.338,177.644 247.277 C 178.599 247.520,180.939 247.943,185.896 248.769 C 189.163 249.313,199.958 250.021,202.251 249.841 C 203.488 249.744,206.257 249.529,208.402 249.365 C 212.204 249.073,212.983 248.969,218.605 248.007 C 221.319 247.542,221.772 247.441,225.356 246.495 C 255.343 238.578,280.831 216.352,292.266 188.147 C 292.634 187.239,293.054 186.227,293.198 185.896 C 294.768 182.315,297.360 173.075,298.284 167.765 C 298.688 165.444,299.475 160.242,299.475 159.891 C 299.475 159.753,287.124 159.640,272.030 159.640 L 244.584 159.640 244.265 160.915 C 239.807 178.699,227.606 190.869,209.752 195.340 C 204.745 196.594,195.255 196.594,190.248 195.340 C 172.389 190.868,160.558 179.061,155.753 160.915 L 155.415 159.640 127.932 159.640 L 100.450 159.640 100.649 160.615 " stroke="none" fill="#f1f1f1" fill-rule="evenodd"></path><path id="path1" d="M195.049 50.293 C 183.937 50.895,172.364 53.442,163.091 57.328 C 157.299 59.754,154.278 61.249,149.587 64.009 C 125.170 78.377,107.534 103.081,101.989 130.683 C 101.551 132.861,100.534 139.295,100.529 139.912 C 100.525 140.411,101.987 140.434,128.313 140.362 L 156.101 140.285 157.098 137.238 C 166.656 108.024,201.547 96.623,226.470 114.570 C 234.423 120.296,240.936 129.599,243.425 138.785 L 243.831 140.285 271.653 140.362 L 299.475 140.438 299.471 139.761 C 299.460 137.806,298.030 130.104,296.810 125.431 C 292.206 107.791,283.276 92.351,270.082 79.220 C 256.229 65.433,239.955 56.641,220.105 52.222 C 213.741 50.805,202.119 49.910,195.049 50.293 " stroke="none" fill="#ab0404" fill-rule="evenodd"></path><path id="path2" d="M0.000 150.038 L 0.000 300.075 200.000 300.075 L 400.000 300.075 400.000 150.038 L 400.000 0.000 200.000 0.000 L 0.000 0.000 0.000 150.038 M210.503 50.737 C 213.445 51.062,218.201 51.798,220.105 52.222 C 239.955 56.641,256.229 65.433,270.082 79.220 C 283.276 92.351,292.206 107.791,296.810 125.431 C 298.030 130.104,299.460 137.806,299.471 139.761 L 299.475 140.438 271.653 140.362 L 243.831 140.285 243.425 138.785 C 240.936 129.599,234.423 120.296,226.470 114.570 C 201.547 96.623,166.656 108.024,157.098 137.238 L 156.101 140.285 128.313 140.362 C 101.987 140.434,100.525 140.411,100.529 139.912 C 100.534 139.295,101.551 132.861,101.989 130.683 C 107.534 103.081,125.170 78.377,149.587 64.009 C 154.278 61.249,157.299 59.754,163.091 57.328 C 167.807 55.352,173.604 53.577,179.295 52.369 C 189.064 50.294,200.903 49.675,210.503 50.737 M204.580 120.598 C 205.039 120.835,205.819 121.024,209.227 121.728 C 209.681 121.822,210.053 122.018,210.053 122.165 C 210.053 122.311,210.255 122.431,210.502 122.431 C 211.844 122.431,216.280 125.204,219.181 127.857 C 222.788 131.155,227.157 138.591,227.157 141.431 C 227.157 141.808,227.322 142.281,227.525 142.484 C 228.053 143.012,228.042 152.427,227.511 154.239 C 226.049 159.226,225.427 160.687,223.462 163.753 C 221.577 166.694,216.581 171.643,215.498 171.643 C 215.309 171.643,215.154 171.766,215.154 171.917 C 215.154 172.253,210.348 174.644,209.673 174.644 C 209.406 174.644,209.104 174.779,209.002 174.944 C 208.900 175.109,208.514 175.244,208.144 175.244 C 207.774 175.244,207.303 175.413,207.097 175.619 C 206.819 175.897,204.977 175.994,200.000 175.994 C 195.023 175.994,193.181 175.897,192.903 175.619 C 192.697 175.413,192.226 175.244,191.856 175.244 C 191.486 175.244,191.100 175.109,190.998 174.944 C 190.896 174.779,190.594 174.644,190.327 174.644 C 189.652 174.644,184.846 172.253,184.846 171.917 C 184.846 171.766,184.677 171.639,184.471 171.634 C 183.825 171.619,179.875 168.081,178.049 165.882 C 176.449 163.955,174.004 159.472,173.573 157.677 C 173.456 157.189,173.261 156.654,173.140 156.489 C 172.918 156.188,172.791 155.616,172.209 152.288 C 171.860 150.291,172.055 143.795,172.506 142.386 C 172.664 141.890,173.021 140.743,173.299 139.835 C 174.113 137.177,175.832 133.841,177.774 131.146 C 178.561 130.055,183.464 125.431,183.834 125.431 C 184.061 125.431,184.246 125.316,184.246 125.176 C 184.246 124.850,188.861 122.431,189.482 122.431 C 189.738 122.431,189.947 122.311,189.947 122.165 C 189.947 122.018,190.319 121.822,190.773 121.728 C 194.191 121.022,194.952 120.837,195.349 120.616 C 195.958 120.277,203.926 120.261,204.580 120.598 M195.649 129.464 C 193.594 129.925,190.999 131.009,189.742 131.932 C 189.217 132.318,188.677 132.636,188.542 132.639 C 187.572 132.661,182.146 139.610,182.146 140.830 C 182.146 141.042,182.029 141.344,181.887 141.500 C 181.340 142.103,180.645 145.919,180.650 148.299 C 180.676 163.158,196.238 172.308,209.534 165.282 C 211.313 164.342,216.054 160.052,216.054 159.383 C 216.054 159.218,216.223 158.902,216.429 158.682 C 216.779 158.308,217.330 157.230,218.088 155.439 C 219.702 151.623,219.733 144.443,218.147 141.352 C 218.016 141.095,217.525 140.079,217.056 139.094 C 216.201 137.296,212.585 133.270,210.897 132.237 C 206.073 129.286,200.755 128.319,195.649 129.464 M203.301 134.886 C 215.249 138.439,217.686 153.170,207.451 159.975 C 206.489 160.615,205.492 161.139,205.236 161.139 C 204.980 161.140,204.643 161.268,204.486 161.424 C 203.536 162.368,196.059 162.347,195.473 161.398 C 195.385 161.256,195.074 161.140,194.781 161.140 C 192.699 161.140,186.947 155.016,186.947 152.800 C 186.947 152.502,186.784 152.095,186.584 151.895 C 185.942 151.253,186.168 145.675,186.914 143.737 C 189.506 137.007,196.936 132.994,203.301 134.886 M156.308 161.065 C 156.508 162.014,156.781 163.061,156.914 163.391 C 157.046 163.721,157.404 164.801,157.708 165.791 C 158.012 166.782,158.359 167.794,158.478 168.042 C 158.597 168.290,159.138 169.437,159.681 170.593 C 162.829 177.292,168.527 183.879,174.794 188.065 C 175.949 188.837,176.962 189.542,177.044 189.633 C 177.219 189.825,180.493 191.432,182.446 192.285 C 184.493 193.179,186.457 193.848,187.032 193.848 C 187.315 193.848,187.547 193.956,187.547 194.087 C 187.547 194.312,189.499 194.737,193.698 195.429 C 195.742 195.765,203.887 195.834,205.701 195.530 C 209.061 194.967,212.067 194.362,212.603 194.142 C 212.933 194.006,213.878 193.665,214.704 193.385 C 217.332 192.491,222.722 189.985,222.906 189.572 C 222.961 189.449,223.137 189.347,223.297 189.347 C 223.550 189.347,226.770 187.071,228.704 185.524 C 233.634 181.581,239.040 174.153,241.589 167.817 C 241.738 167.446,241.985 166.838,242.138 166.467 C 242.290 166.095,242.639 164.981,242.913 163.991 C 243.187 163.001,243.535 161.956,243.686 161.669 C 243.837 161.383,243.961 160.741,243.961 160.243 L 243.961 159.337 271.793 159.413 L 299.625 159.490 299.590 160.990 C 299.552 162.657,299.161 165.395,298.413 169.242 C 298.140 170.645,297.848 172.233,297.763 172.771 C 297.678 173.309,297.488 173.823,297.341 173.914 C 297.194 174.005,297.074 174.393,297.074 174.777 C 297.074 175.412,296.445 177.798,295.883 179.295 C 295.759 179.625,295.412 180.705,295.111 181.695 C 294.810 182.686,294.472 183.631,294.360 183.796 C 294.248 183.961,294.064 184.482,293.951 184.954 C 293.838 185.426,293.496 186.372,293.191 187.055 C 292.887 187.738,292.387 188.938,292.080 189.721 C 291.774 190.505,291.422 191.146,291.298 191.147 C 291.174 191.147,291.073 191.346,291.073 191.589 C 291.073 192.272,287.348 199.285,285.190 202.666 C 284.124 204.335,283.087 205.971,282.886 206.302 C 282.685 206.632,282.450 206.969,282.364 207.052 C 282.277 207.134,281.951 207.603,281.638 208.094 C 281.324 208.585,280.955 209.125,280.816 209.295 C 280.677 209.464,280.148 210.143,279.642 210.803 C 272.805 219.711,262.744 228.941,253.785 234.521 C 252.339 235.422,251.022 236.159,250.859 236.159 C 250.696 236.159,250.562 236.260,250.560 236.384 C 250.559 236.508,250.255 236.760,249.885 236.943 C 249.515 237.127,247.524 238.146,245.461 239.208 C 243.398 240.269,241.103 241.386,240.360 241.689 C 239.617 241.993,238.297 242.560,237.426 242.951 C 236.555 243.341,235.671 243.661,235.461 243.661 C 235.251 243.661,234.950 243.768,234.794 243.899 C 234.637 244.031,233.698 244.384,232.708 244.684 C 231.718 244.985,230.638 245.340,230.308 245.472 C 228.976 246.008,226.717 246.662,226.199 246.662 C 225.896 246.662,225.414 246.782,225.127 246.929 C 224.620 247.189,221.320 247.983,219.505 248.281 C 219.010 248.362,217.389 248.637,215.904 248.892 C 205.578 250.660,189.503 250.415,181.095 248.360 C 180.765 248.280,179.347 247.985,177.944 247.706 C 176.542 247.427,175.124 247.091,174.794 246.961 C 174.464 246.830,173.248 246.484,172.093 246.193 C 170.938 245.901,169.790 245.563,169.542 245.442 C 169.295 245.320,168.282 244.977,167.292 244.679 C 166.302 244.382,165.363 244.031,165.206 243.899 C 165.050 243.768,164.745 243.661,164.530 243.661 C 164.314 243.661,163.438 243.323,162.583 242.911 C 161.728 242.498,160.902 242.161,160.748 242.161 C 160.278 242.161,152.391 238.237,150.707 237.165 C 149.837 236.612,149.057 236.159,148.974 236.159 C 148.801 236.159,144.864 233.720,144.636 233.472 C 144.554 233.382,143.608 232.707,142.536 231.972 C 141.463 231.237,140.450 230.527,140.285 230.394 C 140.120 230.261,139.242 229.581,138.335 228.884 C 137.427 228.186,136.533 227.478,136.348 227.311 C 136.164 227.144,135.286 226.409,134.398 225.678 C 128.848 221.111,116.429 206.782,116.429 204.946 C 116.429 204.811,116.306 204.656,116.155 204.601 C 115.781 204.465,111.928 198.070,111.928 197.586 C 111.928 197.373,111.827 197.154,111.703 197.099 C 111.251 196.899,107.095 187.983,106.201 185.296 C 105.981 184.636,105.719 183.961,105.619 183.796 C 105.518 183.631,105.190 182.686,104.889 181.695 C 104.588 180.705,104.241 179.625,104.117 179.295 C 103.993 178.965,103.666 177.817,103.390 176.744 C 103.113 175.671,102.768 174.389,102.622 173.893 C 102.476 173.398,102.133 171.778,101.859 170.293 C 101.586 168.807,101.244 167.119,101.099 166.542 C 100.702 164.957,100.184 159.948,100.385 159.624 C 100.493 159.448,111.131 159.340,128.252 159.340 L 155.944 159.340 156.308 161.065 " stroke="none" fill="#1d1d1d" fill-rule="evenodd"></path><path id="path3" d="M194.944 120.924 C 192.910 121.294,192.754 121.622,194.754 121.325 C 196.749 121.028,202.978 121.004,205.251 121.283 C 206.518 121.439,206.727 121.415,206.152 121.179 C 205.166 120.775,196.809 120.585,194.944 120.924 M191.598 121.830 C 191.220 121.993,191.164 122.088,191.448 122.088 C 191.695 122.088,192.168 121.972,192.498 121.830 C 192.876 121.668,192.932 121.573,192.648 121.573 C 192.401 121.573,191.928 121.689,191.598 121.830 M207.502 121.830 C 207.832 121.972,208.305 122.088,208.552 122.088 C 208.836 122.088,208.780 121.993,208.402 121.830 C 208.072 121.689,207.599 121.573,207.352 121.573 C 207.068 121.573,207.124 121.668,207.502 121.830 M188.897 122.861 C 186.926 123.810,187.310 123.840,189.384 122.898 C 190.272 122.495,190.863 122.159,190.698 122.152 C 190.533 122.144,189.722 122.463,188.897 122.861 M210.624 122.902 C 211.516 123.307,212.297 123.587,212.359 123.525 C 212.489 123.395,209.613 122.122,209.247 122.148 C 209.112 122.157,209.732 122.496,210.624 122.902 M184.391 125.328 C 182.768 126.411,179.384 129.372,179.564 129.551 C 179.644 129.631,180.223 129.190,180.852 128.571 C 181.481 127.951,182.806 126.844,183.796 126.110 C 185.765 124.650,185.909 124.531,185.716 124.531 C 185.644 124.531,185.048 124.890,184.391 125.328 M214.279 124.653 C 214.807 125.167,218.174 127.506,218.014 127.248 C 217.764 126.842,214.660 124.531,214.366 124.531 C 214.249 124.531,214.210 124.586,214.279 124.653 M218.466 127.580 C 218.460 127.689,219.266 128.634,220.257 129.680 C 221.248 130.727,222.135 131.819,222.228 132.108 C 222.320 132.397,222.531 132.633,222.696 132.633 C 222.861 132.633,222.697 132.213,222.331 131.699 C 221.498 130.528,218.480 127.313,218.466 127.580 M197.085 128.678 C 196.803 128.790,198.114 128.882,200.000 128.882 C 201.886 128.882,203.197 128.790,202.915 128.678 C 202.632 128.566,201.320 128.474,200.000 128.474 C 198.680 128.474,197.368 128.566,197.085 128.678 M193.548 129.526 C 192.806 129.781,192.071 130.111,191.915 130.259 C 191.681 130.482,193.055 130.075,195.349 129.243 C 195.749 129.098,195.749 129.079,195.349 129.070 C 195.101 129.065,194.291 129.270,193.548 129.526 M204.651 129.223 C 205.855 129.713,208.252 130.473,208.252 130.364 C 208.252 130.150,206.282 129.407,205.219 129.219 C 204.659 129.120,204.404 129.122,204.651 129.223 M178.139 131.203 C 177.559 131.901,177.143 132.532,177.214 132.603 C 177.286 132.675,177.379 132.677,177.422 132.608 C 177.465 132.539,177.944 131.909,178.487 131.208 C 179.764 129.557,179.510 129.553,178.139 131.203 M189.418 131.591 C 188.554 132.173,187.847 132.720,187.847 132.806 C 187.847 132.892,188.421 132.572,189.122 132.095 C 189.824 131.618,190.668 131.076,190.998 130.889 C 191.328 130.703,191.461 130.547,191.294 130.542 C 191.127 130.537,190.283 131.009,189.418 131.591 M210.353 131.542 C 210.353 131.625,210.758 131.981,211.253 132.333 C 211.748 132.686,212.153 132.907,212.153 132.824 C 212.153 132.742,211.748 132.386,211.253 132.033 C 210.758 131.680,210.353 131.460,210.353 131.542 M176.371 133.609 C 175.590 134.799,174.007 138.076,174.102 138.303 C 174.152 138.424,174.821 137.265,175.588 135.728 C 176.983 132.932,177.202 132.340,176.371 133.609 M185.885 134.509 L 184.396 136.084 185.971 134.595 C 187.435 133.211,187.685 132.933,187.461 132.933 C 187.413 132.933,186.704 133.642,185.885 134.509 M214.112 134.709 C 214.942 135.630,215.928 136.789,216.304 137.284 C 216.773 137.903,216.882 137.967,216.650 137.490 C 216.464 137.108,215.478 135.949,214.458 134.915 C 212.746 133.179,212.720 133.163,214.112 134.709 M223.217 133.383 C 223.379 133.713,223.732 134.254,224.001 134.584 L 224.489 135.184 224.195 134.584 C 224.033 134.254,223.680 133.713,223.411 133.383 L 222.923 132.783 223.217 133.383 M201.125 134.941 C 201.414 135.016,201.887 135.016,202.176 134.941 C 202.464 134.865,202.228 134.803,201.650 134.803 C 201.073 134.803,200.836 134.865,201.125 134.941 M195.799 135.334 C 195.421 135.496,195.365 135.592,195.649 135.592 C 195.896 135.592,196.369 135.476,196.699 135.334 C 197.077 135.171,197.133 135.076,196.849 135.076 C 196.602 135.076,196.129 135.192,195.799 135.334 M203.301 135.334 C 204.198 135.719,204.948 135.719,204.351 135.334 C 204.104 135.174,203.631 135.050,203.301 135.059 L 202.701 135.076 203.301 135.334 M224.461 135.349 C 224.475 135.731,226.547 140.526,226.552 140.186 C 226.558 139.684,225.071 135.882,224.719 135.499 C 224.574 135.342,224.458 135.275,224.461 135.349 M193.981 136.069 C 193.419 136.489,193.422 136.498,194.078 136.333 C 194.452 136.239,194.831 136.043,194.921 135.898 C 195.175 135.487,194.626 135.587,193.981 136.069 M205.079 135.898 C 205.169 136.043,205.548 136.239,205.922 136.333 C 206.578 136.498,206.581 136.489,206.019 136.069 C 205.374 135.587,204.825 135.487,205.079 135.898 M183.899 136.759 C 183.184 137.611,182.388 138.977,182.525 139.114 C 182.595 139.184,183.073 138.565,183.587 137.738 C 184.554 136.181,184.659 135.852,183.899 136.759 M192.340 137.029 C 191.383 137.667,189.347 139.595,189.347 139.863 C 189.347 139.976,189.921 139.510,190.623 138.827 C 191.324 138.143,192.236 137.355,192.648 137.075 C 193.061 136.795,193.327 136.559,193.240 136.550 C 193.153 136.541,192.748 136.757,192.340 137.029 M207.352 137.041 C 207.764 137.329,208.696 138.145,209.422 138.855 C 210.148 139.565,210.792 140.096,210.852 140.036 C 211.030 139.858,208.132 137.248,207.333 136.866 L 206.602 136.517 207.352 137.041 M173.473 140.015 C 173.301 140.640,173.214 141.206,173.280 141.272 C 173.346 141.338,173.541 140.880,173.713 140.255 C 173.886 139.630,173.973 139.065,173.907 138.998 C 173.841 138.932,173.646 139.390,173.473 140.015 M181.830 140.327 C 181.664 140.762,181.584 141.174,181.652 141.242 C 181.720 141.310,181.920 140.954,182.095 140.450 C 182.485 139.331,182.250 139.221,181.830 140.327 M218.184 141.110 C 218.841 142.778,219.281 143.480,218.906 142.262 C 218.549 141.101,217.859 139.535,217.705 139.535 C 217.627 139.535,217.843 140.244,218.184 141.110 M211.614 141.615 C 211.988 142.264,212.345 142.744,212.407 142.681 C 212.537 142.552,211.276 140.435,211.069 140.435 C 210.995 140.435,211.240 140.966,211.614 141.615 M226.766 141.935 C 226.860 142.678,227.059 143.488,227.209 143.736 C 227.383 144.022,227.411 143.694,227.286 142.836 C 227.022 141.024,226.548 140.202,226.766 141.935 M172.733 142.801 C 172.618 143.525,172.587 144.179,172.664 144.257 C 172.865 144.458,173.230 142.344,173.074 141.877 C 173.002 141.662,172.849 142.078,172.733 142.801 M219.271 144.936 C 219.363 145.844,219.488 146.643,219.547 146.712 C 219.770 146.970,219.602 144.461,219.358 143.886 C 219.199 143.512,219.166 143.909,219.271 144.936 M180.532 144.198 C 180.429 144.466,180.362 145.248,180.383 145.936 C 180.418 147.135,180.430 147.119,180.659 145.538 C 180.905 143.837,180.859 143.346,180.532 144.198 M227.569 148.387 C 227.570 150.203,227.619 150.907,227.679 149.952 C 227.739 148.997,227.738 147.511,227.678 146.651 C 227.617 145.790,227.568 146.572,227.569 148.387 M172.353 148.387 C 172.353 150.038,172.404 150.674,172.465 149.802 C 172.525 148.930,172.525 147.580,172.463 146.802 C 172.402 146.023,172.352 146.737,172.353 148.387 M213.456 148.387 C 213.457 149.707,213.510 150.210,213.573 149.504 C 213.637 148.799,213.636 147.718,213.571 147.104 C 213.507 146.489,213.455 147.067,213.456 148.387 M186.445 148.387 C 186.446 149.542,186.501 149.978,186.566 149.356 C 186.631 148.733,186.629 147.788,186.563 147.255 C 186.497 146.722,186.444 147.232,186.445 148.387 M180.121 148.387 C 180.124 149.047,180.185 149.282,180.257 148.909 C 180.329 148.535,180.326 147.995,180.251 147.708 C 180.176 147.422,180.117 147.727,180.121 148.387 M219.731 148.387 C 219.734 149.047,219.795 149.282,219.867 148.909 C 219.939 148.535,219.936 147.995,219.861 147.708 C 219.786 147.422,219.727 147.727,219.731 148.387 M180.350 150.963 C 180.352 151.692,180.484 152.491,180.642 152.738 C 180.834 153.039,180.869 152.640,180.745 151.538 C 180.515 149.476,180.344 149.227,180.350 150.963 M219.405 150.988 C 219.378 151.594,219.277 152.336,219.182 152.639 C 219.020 153.156,219.029 153.157,219.350 152.658 C 219.537 152.366,219.638 151.624,219.573 151.008 L 219.456 149.887 219.405 150.988 M186.830 151.838 C 186.932 152.416,187.137 153.091,187.285 153.338 C 187.605 153.871,187.298 152.316,186.901 151.388 C 186.727 150.983,186.704 151.129,186.830 151.838 M172.721 153.488 C 172.919 154.940,173.753 157.930,173.915 157.768 C 174.023 157.660,173.447 155.229,172.829 153.188 C 172.590 152.398,172.577 152.434,172.721 153.488 M226.997 153.563 C 226.902 154.017,226.633 155.123,226.397 156.020 C 225.841 158.141,226.063 158.373,226.652 156.286 C 227.279 154.064,227.535 152.738,227.336 152.738 C 227.244 152.738,227.091 153.110,226.997 153.563 M180.954 153.938 C 180.954 154.186,181.085 154.591,181.245 154.839 C 181.504 155.239,181.536 155.239,181.536 154.839 C 181.536 154.591,181.405 154.186,181.245 153.938 C 180.987 153.538,180.954 153.538,180.954 153.938 M187.547 154.094 C 187.547 154.376,189.015 156.584,189.333 156.780 C 189.503 156.886,189.219 156.289,188.700 155.455 C 187.818 154.037,187.547 153.716,187.547 154.094 M218.755 154.027 C 218.755 154.131,218.475 154.930,218.133 155.803 C 217.791 156.675,217.636 157.254,217.788 157.089 C 218.207 156.634,219.102 154.186,218.917 154.001 C 218.828 153.912,218.755 153.923,218.755 154.027 M210.703 156.464 C 210.179 157.193,209.043 158.297,208.176 158.917 C 206.124 160.386,205.752 160.761,207.045 160.058 C 208.239 159.408,210.989 156.793,211.518 155.804 C 212.085 154.744,211.733 155.029,210.703 156.464 M181.717 156.039 C 181.825 156.452,182.033 156.917,182.179 157.074 C 182.608 157.533,182.476 156.875,181.972 156.039 L 181.520 155.289 181.717 156.039 M190.734 158.352 C 192.020 159.549,194.356 160.933,195.649 161.265 C 196.062 161.371,195.589 161.069,194.599 160.595 C 193.608 160.121,192.056 159.163,191.148 158.468 L 189.497 157.203 190.734 158.352 M182.466 157.689 C 182.467 157.854,182.812 158.395,183.233 158.890 C 183.655 159.385,183.862 159.520,183.695 159.190 C 183.239 158.293,182.465 157.347,182.466 157.689 M224.787 160.344 C 223.510 163.032,221.188 166.175,218.821 168.417 C 217.819 169.366,217.115 170.143,217.256 170.143 C 218.734 170.143,226.782 159.141,225.917 158.303 C 225.856 158.245,225.348 159.163,224.787 160.344 M128.033 159.565 L 155.390 159.643 155.691 160.467 C 155.935 161.136,155.996 161.175,156.015 160.675 C 156.068 159.303,156.802 159.336,127.997 159.413 L 100.675 159.487 128.033 159.565 M258.267 159.565 C 265.723 159.609,278.011 159.609,285.574 159.565 C 293.137 159.520,287.037 159.484,272.018 159.484 C 256.999 159.484,250.811 159.520,258.267 159.565 M244.148 160.102 C 244.045 160.370,243.973 160.814,243.987 161.090 C 244.001 161.365,244.132 161.192,244.277 160.705 C 244.560 159.758,244.460 159.289,244.148 160.102 M184.536 160.675 C 185.354 161.819,187.093 163.587,187.697 163.888 C 188.027 164.053,187.783 163.739,187.156 163.189 C 186.528 162.640,185.583 161.711,185.055 161.125 C 184.528 160.539,184.294 160.336,184.536 160.675 M213.923 162.057 C 212.834 163.203,211.993 164.141,212.054 164.141 C 212.301 164.141,214.931 161.574,215.494 160.784 C 216.385 159.533,216.113 159.754,213.923 162.057 M204.726 160.850 C 203.721 161.253,203.909 161.459,204.951 161.095 C 205.446 160.923,205.851 160.727,205.851 160.661 C 205.851 160.483,205.486 160.544,204.726 160.850 M100.733 162.491 C 100.825 163.481,100.951 164.347,101.013 164.416 C 101.214 164.639,101.061 162.516,100.810 161.590 C 100.649 160.998,100.623 161.307,100.733 162.491 M299.036 162.802 C 298.920 163.731,298.888 164.554,298.964 164.630 C 299.040 164.706,299.197 164.008,299.313 163.079 C 299.429 162.150,299.462 161.328,299.386 161.251 C 299.310 161.175,299.152 161.873,299.036 162.802 M176.130 162.613 C 178.571 167.399,186.254 173.581,191.223 174.760 C 192.622 175.091,192.139 174.757,190.195 174.048 C 185.013 172.159,179.739 167.890,176.895 163.281 C 175.604 161.190,175.243 160.875,176.130 162.613 M197.149 161.740 C 197.562 161.873,198.305 161.978,198.800 161.975 L 199.700 161.970 198.800 161.740 C 198.305 161.614,197.562 161.509,197.149 161.506 L 196.399 161.500 197.149 161.740 M201.200 161.740 L 200.300 161.970 201.200 161.975 C 201.695 161.978,202.438 161.873,202.851 161.740 L 203.601 161.500 202.851 161.506 C 202.438 161.509,201.695 161.614,201.200 161.740 M156.222 162.641 C 156.324 163.218,156.529 163.893,156.678 164.141 C 156.997 164.674,156.690 163.118,156.293 162.191 C 156.120 161.786,156.097 161.932,156.222 162.641 M243.361 163.241 C 243.174 163.934,243.080 164.560,243.152 164.632 C 243.224 164.704,243.428 164.188,243.606 163.486 C 243.785 162.784,243.879 162.158,243.815 162.095 C 243.752 162.032,243.548 162.547,243.361 163.241 M188.747 164.731 C 189.551 165.330,193.223 167.142,193.616 167.134 C 193.826 167.129,192.851 166.562,191.448 165.873 C 188.511 164.431,188.126 164.268,188.747 164.731 M208.591 165.837 C 205.785 167.294,205.774 167.644,208.577 166.253 C 210.427 165.335,211.908 164.407,211.395 164.486 C 211.234 164.511,209.972 165.119,208.591 165.837 M101.455 167.317 C 101.472 167.798,101.600 168.530,101.740 168.942 C 101.912 169.448,101.939 169.204,101.822 168.192 C 101.627 166.504,101.410 165.986,101.455 167.317 M157.890 167.757 C 158.065 168.261,158.265 168.617,158.333 168.549 C 158.481 168.400,157.915 166.842,157.712 166.842 C 157.634 166.842,157.714 167.254,157.890 167.757 M241.898 167.629 C 241.700 168.064,241.607 168.488,241.691 168.573 C 241.775 168.657,241.986 168.350,242.161 167.892 C 242.335 167.434,242.428 167.009,242.368 166.949 C 242.307 166.889,242.096 167.195,241.898 167.629 M298.165 168.233 C 298.059 169.007,298.030 169.698,298.101 169.769 C 298.172 169.840,298.323 169.271,298.438 168.506 C 298.553 167.740,298.582 167.049,298.503 166.970 C 298.423 166.890,298.272 167.459,298.165 168.233 M194.591 167.430 C 194.697 167.601,195.136 167.742,195.567 167.742 C 196.507 167.742,196.398 167.598,195.249 167.322 C 194.691 167.188,194.465 167.225,194.591 167.430 M204.351 167.442 L 203.601 167.682 204.351 167.707 C 204.764 167.721,205.304 167.602,205.551 167.442 C 206.125 167.071,205.508 167.071,204.351 167.442 M102.077 170.743 C 102.092 171.522,102.564 172.803,102.575 172.093 C 102.580 171.763,102.467 171.223,102.326 170.893 C 102.168 170.525,102.071 170.467,102.077 170.743 M160.265 172.821 C 160.962 174.129,161.862 175.580,162.265 176.047 L 162.997 176.894 162.357 175.844 C 162.005 175.266,161.170 173.815,160.502 172.618 C 158.862 169.684,158.678 169.842,160.265 172.821 M215.253 171.287 C 213.580 172.365,213.198 172.825,214.704 171.949 C 215.812 171.304,216.969 170.417,216.643 170.462 C 216.567 170.472,215.941 170.844,215.253 171.287 M239.723 172.318 C 239.203 173.350,238.251 174.970,237.607 175.919 C 236.963 176.868,236.504 177.644,236.587 177.644 C 236.669 177.644,237.264 176.868,237.907 175.919 C 239.122 174.128,241.081 170.443,240.819 170.443 C 240.736 170.443,240.243 171.287,239.723 172.318 M297.397 171.966 C 297.213 172.827,297.119 173.588,297.189 173.658 C 297.259 173.728,297.467 173.081,297.651 172.220 C 297.836 171.359,297.930 170.598,297.860 170.528 C 297.790 170.458,297.582 171.105,297.397 171.966 M211.403 173.394 C 210.413 173.852,208.995 174.404,208.252 174.621 C 205.831 175.330,205.394 175.496,205.887 175.520 C 206.955 175.572,213.353 173.142,213.353 172.684 C 213.353 172.487,213.400 172.470,211.403 173.394 M296.662 174.981 C 296.556 175.508,296.526 175.995,296.594 176.063 C 296.661 176.131,296.810 175.763,296.924 175.244 C 297.038 174.725,297.069 174.238,296.992 174.162 C 296.916 174.085,296.767 174.454,296.662 174.981 M192.798 175.244 C 193.128 175.386,193.668 175.502,193.998 175.502 L 194.599 175.502 193.998 175.244 C 193.668 175.102,193.128 174.986,192.798 174.986 L 192.198 174.986 192.798 175.244 M195.816 175.883 C 196.302 175.988,198.185 176.073,200.000 176.073 C 201.815 176.073,203.698 175.988,204.184 175.883 C 204.670 175.779,202.787 175.694,200.000 175.694 C 197.213 175.694,195.330 175.779,195.816 175.883 M103.709 177.194 C 103.956 178.298,104.128 178.537,104.121 177.769 C 104.119 177.453,103.980 176.992,103.812 176.744 C 103.590 176.415,103.562 176.537,103.709 177.194 M164.490 179.143 C 165.685 180.752,169.883 185.206,170.048 185.040 C 170.112 184.976,169.316 184.062,168.278 183.010 C 167.241 181.957,165.738 180.352,164.940 179.445 C 163.720 178.058,163.648 178.010,164.490 179.143 M235.075 179.356 C 234.439 180.132,234.075 180.670,234.267 180.552 C 234.675 180.300,236.575 177.944,236.370 177.944 C 236.294 177.944,235.711 178.580,235.075 179.356 M104.312 179.295 C 104.420 179.790,104.626 180.398,104.771 180.645 C 104.940 180.933,104.964 180.771,104.840 180.195 C 104.733 179.700,104.527 179.092,104.381 178.845 C 104.213 178.557,104.188 178.719,104.312 179.295 M295.145 180.216 C 295.035 180.656,295.002 181.074,295.073 181.145 C 295.144 181.215,295.292 180.913,295.402 180.474 C 295.513 180.034,295.545 179.616,295.474 179.546 C 295.404 179.475,295.256 179.777,295.145 180.216 M231.800 183.121 L 229.707 185.296 231.883 183.204 C 233.904 181.260,234.196 180.945,233.975 180.945 C 233.930 180.945,232.951 181.924,231.800 183.121 M294.407 182.479 C 294.222 183.009,294.123 183.496,294.188 183.560 C 294.252 183.624,294.455 183.243,294.640 182.712 C 294.825 182.182,294.924 181.696,294.860 181.631 C 294.796 181.567,294.592 181.949,294.407 182.479 M105.798 183.646 C 105.909 184.059,106.124 184.599,106.277 184.846 C 106.470 185.159,106.494 185.068,106.355 184.546 C 106.244 184.134,106.029 183.593,105.876 183.346 C 105.683 183.033,105.659 183.125,105.798 183.646 M170.536 185.354 C 170.788 185.762,173.143 187.663,173.143 187.458 C 173.143 187.382,172.508 186.799,171.732 186.163 C 170.956 185.527,170.417 185.163,170.536 185.354 M228.057 186.387 L 226.707 187.610 227.978 186.656 C 229.083 185.827,229.793 185.127,229.500 185.155 C 229.449 185.160,228.800 185.715,228.057 186.387 M107.477 188.162 C 107.653 188.666,107.852 189.022,107.920 188.954 C 108.069 188.806,107.502 187.247,107.300 187.247 C 107.222 187.247,107.302 187.659,107.477 188.162 M175.082 188.880 C 176.059 189.694,178.826 191.269,178.986 191.103 C 179.042 191.045,177.986 190.355,176.641 189.569 C 175.295 188.783,174.593 188.473,175.082 188.880 M224.618 188.832 C 224.129 189.198,222.374 190.202,220.717 191.063 C 219.060 191.924,217.817 192.633,217.955 192.638 C 218.415 192.657,223.993 189.667,224.906 188.912 C 226.025 187.988,225.820 187.931,224.618 188.832 M108.457 190.395 C 108.961 191.602,109.505 192.584,109.518 192.311 C 109.533 192.009,108.312 189.347,108.159 189.347 C 108.082 189.347,108.216 189.819,108.457 190.395 M291.129 190.712 C 290.225 192.573,290.326 192.833,291.257 191.043 C 291.674 190.243,291.963 189.537,291.900 189.475 C 291.837 189.412,291.491 189.969,291.129 190.712 M179.445 191.296 C 179.445 191.499,181.882 192.711,182.018 192.576 C 182.081 192.513,181.528 192.167,180.789 191.808 C 180.050 191.449,179.445 191.219,179.445 191.296 M215.660 193.303 C 214.701 193.638,213.984 193.979,214.067 194.062 C 214.237 194.232,216.953 193.282,217.389 192.899 C 217.756 192.576,217.726 192.583,215.660 193.303 M184.096 193.527 C 184.756 193.844,185.499 194.103,185.746 194.102 C 186.260 194.099,184.775 193.417,183.646 193.136 C 183.233 193.033,183.436 193.209,184.096 193.527 M186.947 194.410 C 187.194 194.558,187.869 194.763,188.447 194.866 C 189.156 194.991,189.302 194.968,188.897 194.795 C 187.969 194.398,186.414 194.091,186.947 194.410 M211.703 194.610 C 210.514 195.021,210.513 195.023,211.553 194.853 C 212.131 194.758,212.806 194.564,213.053 194.423 C 213.714 194.047,213.076 194.135,211.703 194.610 M190.248 195.333 C 190.495 195.502,191.092 195.642,191.573 195.644 C 192.726 195.650,192.486 195.477,190.998 195.227 C 190.138 195.083,189.925 195.113,190.248 195.333 M208.402 195.349 L 207.502 195.578 208.402 195.609 C 208.897 195.626,209.505 195.509,209.752 195.349 C 210.310 194.989,209.818 194.989,208.402 195.349 M193.715 195.989 C 194.201 196.093,197.029 196.178,200.000 196.178 C 202.971 196.178,205.799 196.093,206.285 195.989 C 206.770 195.884,203.942 195.799,200.000 195.799 C 196.058 195.799,193.230 195.884,193.715 195.989 M286.857 199.175 C 286.322 200.124,285.685 201.238,285.442 201.650 L 285.000 202.401 285.579 201.704 C 286.241 200.905,288.185 197.449,287.971 197.449 C 287.893 197.449,287.392 198.226,286.857 199.175 M114.290 201.500 C 114.452 201.830,114.805 202.371,115.073 202.701 L 115.562 203.301 115.267 202.701 C 115.105 202.371,114.753 201.830,114.484 201.500 L 113.995 200.900 114.290 201.500 M116.029 204.356 C 116.323 204.853,116.878 205.630,117.262 206.081 C 117.645 206.532,117.461 206.125,116.852 205.176 C 115.697 203.378,115.099 202.781,116.029 204.356 M282.071 206.752 C 281.718 207.247,281.497 207.652,281.580 207.652 C 281.662 207.652,282.018 207.247,282.371 206.752 C 282.723 206.257,282.944 205.851,282.862 205.851 C 282.779 205.851,282.423 206.257,282.071 206.752 M280.570 208.852 C 280.218 209.347,279.997 209.752,280.079 209.752 C 280.162 209.752,280.518 209.347,280.870 208.852 C 281.223 208.357,281.444 207.952,281.361 207.952 C 281.279 207.952,280.923 208.357,280.570 208.852 M120.321 210.428 C 120.832 211.129,121.799 212.311,122.470 213.053 C 123.228 213.891,123.387 214.005,122.891 213.353 C 122.452 212.776,121.556 211.594,120.902 210.728 C 119.484 208.852,118.986 208.594,120.321 210.428 M277.991 212.228 C 277.030 213.425,276.488 214.207,276.786 213.967 C 277.379 213.490,280.088 210.053,279.871 210.053 C 279.798 210.053,278.951 211.032,277.991 212.228 M123.931 214.785 C 123.931 215.185,130.593 222.077,132.813 223.975 C 134.127 225.097,133.773 224.689,131.843 222.857 C 130.171 221.270,127.707 218.750,126.367 217.257 C 125.027 215.765,123.931 214.652,123.931 214.785 M271.418 219.477 C 268.942 222.002,266.331 224.571,265.615 225.186 C 264.899 225.800,264.371 226.361,264.442 226.432 C 264.623 226.614,272.920 218.594,274.670 216.546 C 275.465 215.615,276.071 214.861,276.017 214.870 C 275.963 214.879,273.893 216.952,271.418 219.477 M136.149 226.916 C 137.959 228.446,138.325 228.618,136.844 227.243 C 136.096 226.548,135.378 225.974,135.248 225.968 C 135.119 225.962,135.524 226.388,136.149 226.916 M262.566 227.782 L 261.215 229.006 262.641 227.895 C 263.890 226.921,264.261 226.555,263.991 226.557 C 263.950 226.558,263.308 227.109,262.566 227.782 M258.665 230.643 C 257.427 231.556,256.279 232.450,256.114 232.629 C 255.720 233.055,259.156 230.677,260.315 229.721 C 261.888 228.424,260.995 228.923,258.665 230.643 M140.091 229.955 C 140.506 230.454,144.936 233.569,144.936 233.361 C 144.936 233.288,143.763 232.392,142.329 231.369 C 140.894 230.346,139.888 229.709,140.091 229.955 M145.686 233.914 C 146.017 234.183,146.557 234.535,146.887 234.697 L 147.487 234.992 146.887 234.503 C 146.557 234.234,146.017 233.882,145.686 233.720 L 145.086 233.425 145.686 233.914 M253.638 234.093 C 252.616 234.748,252.285 235.188,253.188 234.691 C 253.877 234.313,254.955 233.479,254.764 233.473 C 254.681 233.470,254.175 233.750,253.638 234.093 M148.537 235.697 C 148.537 235.779,149.077 236.122,149.737 236.459 C 150.398 236.796,150.938 237.004,150.938 236.921 C 150.938 236.839,150.398 236.496,149.737 236.159 C 149.077 235.822,148.537 235.614,148.537 235.697 M250.188 236.179 C 249.569 236.506,249.062 236.841,249.062 236.922 C 249.062 237.004,249.602 236.796,250.263 236.459 C 250.923 236.122,251.463 235.782,251.463 235.703 C 251.463 235.507,251.461 235.507,250.188 236.179 M164.141 243.310 C 164.389 243.463,164.929 243.679,165.341 243.789 C 165.863 243.928,165.954 243.905,165.641 243.712 C 165.394 243.559,164.854 243.343,164.441 243.233 C 163.920 243.093,163.828 243.117,164.141 243.310 M234.809 243.521 C 234.058 243.883,234.033 243.925,234.659 243.772 C 235.509 243.564,236.465 243.077,236.009 243.083 C 235.844 243.086,235.304 243.283,234.809 243.521 M232.558 244.261 C 232.158 244.520,232.158 244.552,232.558 244.552 C 232.806 244.552,233.211 244.421,233.458 244.261 C 233.858 244.003,233.858 243.970,233.458 243.970 C 233.211 243.970,232.806 244.101,232.558 244.261 M173.293 246.362 C 173.623 246.503,174.096 246.619,174.344 246.619 C 174.627 246.619,174.572 246.524,174.194 246.362 C 173.863 246.220,173.391 246.104,173.143 246.104 C 172.860 246.104,172.915 246.199,173.293 246.362 M225.806 246.362 C 225.428 246.524,225.373 246.619,225.656 246.619 C 225.904 246.619,226.377 246.503,226.707 246.362 C 227.085 246.199,227.140 246.104,226.857 246.104 C 226.609 246.104,226.137 246.220,225.806 246.362 M176.169 247.070 C 176.238 247.129,176.699 247.268,177.194 247.379 C 177.852 247.526,177.973 247.498,177.644 247.276 C 177.239 247.001,175.868 246.810,176.169 247.070 M222.356 247.276 C 222.027 247.498,222.148 247.526,222.806 247.379 C 223.909 247.132,224.149 246.960,223.381 246.966 C 223.065 246.969,222.603 247.108,222.356 247.276 M183.371 248.572 C 183.440 248.632,184.239 248.758,185.146 248.852 C 186.212 248.962,186.531 248.934,186.047 248.772 C 185.303 248.524,183.130 248.361,183.371 248.572 M213.953 248.762 C 212.900 249.099,214.001 249.111,215.604 248.779 L 216.804 248.531 215.754 248.527 C 215.176 248.524,214.366 248.630,213.953 248.762 M188.897 249.381 C 190.081 249.624,194.066 249.764,193.823 249.554 C 193.755 249.495,192.348 249.376,190.698 249.290 C 188.749 249.189,188.118 249.221,188.897 249.381 M208.252 249.362 L 206.002 249.554 207.952 249.591 C 209.025 249.611,210.443 249.516,211.103 249.380 C 212.568 249.076,211.668 249.071,208.252 249.362 M194.974 249.879 C 195.510 249.946,196.388 249.946,196.924 249.879 C 197.461 249.813,197.022 249.758,195.949 249.758 C 194.876 249.758,194.437 249.813,194.974 249.879 M203.526 249.877 C 203.980 249.946,204.722 249.946,205.176 249.877 C 205.630 249.809,205.259 249.752,204.351 249.752 C 203.443 249.752,203.072 249.809,203.526 249.877 " stroke="none" fill="#848484" fill-rule="evenodd"></path><path id="path4" d="M195.545 120.555 C 195.469 120.679,197.474 120.780,200.000 120.780 C 202.527 120.780,204.531 120.679,204.455 120.555 C 204.378 120.431,202.374 120.330,200.000 120.330 C 197.626 120.330,195.622 120.431,195.545 120.555 M192.390 121.274 C 191.836 121.434,191.440 121.623,191.511 121.694 C 191.583 121.765,192.239 121.636,192.970 121.406 C 194.462 120.938,193.958 120.823,192.390 121.274 M206.302 121.184 C 207.230 121.581,208.785 121.888,208.252 121.569 C 208.005 121.421,207.329 121.216,206.752 121.113 C 206.043 120.988,205.897 121.011,206.302 121.184 M187.772 123.051 C 187.153 123.378,186.647 123.712,186.647 123.794 C 186.647 123.928,189.017 122.820,189.322 122.544 C 189.668 122.231,188.766 122.526,187.772 123.051 M210.678 122.544 C 210.985 122.822,213.353 123.928,213.353 123.793 C 213.353 123.623,211.089 122.431,210.765 122.431 C 210.648 122.431,210.609 122.482,210.678 122.544 M185.071 124.459 C 183.857 125.211,184.065 125.518,185.296 124.791 C 185.874 124.451,186.347 124.118,186.347 124.051 C 186.347 123.809,185.877 123.959,185.071 124.459 M213.803 124.231 C 213.905 124.396,214.122 124.531,214.284 124.531 C 215.420 124.531,221.000 129.695,222.801 132.413 C 223.431 133.364,224.007 134.083,224.080 134.010 C 224.374 133.716,220.792 129.314,218.826 127.553 C 216.038 125.057,213.122 123.128,213.803 124.231 M181.012 127.710 C 179.650 128.964,178.387 130.281,178.206 130.636 C 178.024 130.992,178.735 130.393,179.786 129.307 C 180.836 128.220,182.233 126.903,182.889 126.381 C 183.546 125.859,183.949 125.431,183.786 125.431 C 183.623 125.431,182.374 126.457,181.012 127.710 M198.883 128.952 C 199.588 129.016,200.669 129.015,201.283 128.950 C 201.898 128.886,201.320 128.834,200.000 128.835 C 198.680 128.836,198.177 128.889,198.883 128.952 M195.199 129.346 C 194.781 129.536,194.962 129.563,195.799 129.435 C 196.459 129.335,197.056 129.203,197.124 129.142 C 197.382 128.915,195.775 129.085,195.199 129.346 M202.876 129.142 C 202.944 129.203,203.541 129.335,204.201 129.435 C 205.038 129.563,205.219 129.536,204.801 129.346 C 204.225 129.085,202.618 128.915,202.876 129.142 M191.448 130.683 C 191.035 130.919,190.833 131.112,190.998 131.112 C 191.163 131.112,191.635 130.919,192.048 130.683 C 192.461 130.447,192.663 130.254,192.498 130.254 C 192.333 130.254,191.860 130.447,191.448 130.683 M176.942 132.333 C 176.649 132.828,176.460 133.233,176.521 133.233 C 176.582 133.233,176.931 132.828,177.297 132.333 C 177.663 131.838,177.852 131.433,177.718 131.433 C 177.584 131.433,177.234 131.838,176.942 132.333 M186.047 134.584 C 185.150 135.491,184.493 136.234,184.586 136.234 C 184.679 136.234,185.498 135.491,186.405 134.584 C 187.313 133.676,187.970 132.933,187.866 132.933 C 187.762 132.933,186.943 133.676,186.047 134.584 M211.885 133.008 C 211.958 133.050,212.824 133.826,213.810 134.734 L 215.604 136.384 213.964 134.659 C 213.062 133.710,212.195 132.933,212.038 132.933 C 211.881 132.933,211.812 132.967,211.885 133.008 M197.301 134.709 C 196.972 134.838,197.850 134.886,199.252 134.816 C 202.558 134.651,203.008 134.482,200.150 134.478 C 198.912 134.477,197.630 134.581,197.301 134.709 M173.953 137.659 C 173.720 138.074,173.392 139.686,173.578 139.500 C 173.801 139.277,174.347 137.434,174.190 137.434 C 174.129 137.434,174.022 137.536,173.953 137.659 M190.231 138.560 L 189.197 139.685 190.323 138.651 C 191.370 137.688,191.586 137.434,191.357 137.434 C 191.307 137.434,190.800 137.941,190.231 138.560 M209.452 138.485 C 210.012 139.062,210.538 139.535,210.620 139.535 C 210.703 139.535,210.312 139.062,209.752 138.485 C 209.193 137.907,208.667 137.434,208.584 137.434 C 208.502 137.434,208.892 137.907,209.452 138.485 M226.459 139.685 C 226.557 140.180,226.750 140.788,226.888 141.035 C 227.338 141.843,227.183 140.698,226.705 139.685 L 226.281 138.785 226.459 139.685 M173.048 140.250 C 172.936 140.544,172.852 141.010,172.862 141.285 C 172.875 141.616,172.979 141.541,173.171 141.061 C 173.330 140.663,173.414 140.197,173.357 140.026 C 173.300 139.855,173.161 139.956,173.048 140.250 M172.333 143.025 C 171.921 144.502,172.052 153.405,172.495 154.089 C 172.863 154.655,172.875 154.647,172.712 153.938 C 172.325 152.256,172.196 146.743,172.494 144.646 C 172.825 142.317,172.747 141.537,172.333 143.025 M227.369 143.145 C 227.658 144.491,227.671 151.247,227.389 153.188 C 227.206 154.441,227.231 154.590,227.539 154.089 C 228.066 153.229,228.056 143.014,227.526 142.485 C 227.219 142.177,227.188 142.304,227.369 143.145 M186.534 144.798 C 186.431 145.066,186.360 145.578,186.377 145.936 C 186.397 146.347,186.499 146.201,186.654 145.538 C 186.917 144.423,186.845 143.986,186.534 144.798 M219.448 148.387 C 219.450 149.377,219.506 149.746,219.572 149.207 C 219.639 148.668,219.638 147.857,219.569 147.406 C 219.501 146.956,219.446 147.397,219.448 148.387 M180.431 148.387 C 180.433 149.212,180.491 149.514,180.560 149.058 C 180.629 148.602,180.628 147.927,180.556 147.558 C 180.485 147.189,180.429 147.562,180.431 148.387 M186.132 148.387 C 186.135 149.212,186.193 149.514,186.262 149.058 C 186.331 148.602,186.329 147.927,186.258 147.558 C 186.187 147.189,186.130 147.562,186.132 148.387 M213.739 148.387 C 213.741 149.212,213.800 149.514,213.869 149.058 C 213.938 148.602,213.936 147.927,213.865 147.558 C 213.793 147.189,213.737 147.562,213.739 148.387 M186.347 151.070 C 186.347 151.473,186.457 151.871,186.592 151.954 C 186.728 152.038,186.780 151.708,186.708 151.222 C 186.551 150.150,186.347 150.064,186.347 151.070 M213.388 150.988 C 213.369 151.264,213.276 151.736,213.181 152.038 C 213.017 152.559,213.026 152.560,213.351 152.054 C 213.539 151.760,213.633 151.287,213.558 151.003 C 213.436 150.539,213.420 150.537,213.388 150.988 M172.864 155.646 C 172.853 156.008,172.978 156.387,173.143 156.489 C 173.498 156.708,173.498 156.415,173.143 155.589 C 172.895 155.010,172.885 155.012,172.864 155.646 M226.728 155.910 C 226.618 156.350,226.595 156.777,226.677 156.860 C 226.760 156.943,226.918 156.650,227.028 156.210 C 227.139 155.771,227.161 155.343,227.079 155.261 C 226.996 155.178,226.838 155.471,226.728 155.910 M173.624 157.813 C 173.929 158.973,174.667 160.617,174.815 160.469 C 174.890 160.394,174.609 159.603,174.192 158.711 C 173.775 157.819,173.520 157.415,173.624 157.813 M225.986 158.184 C 225.588 159.325,225.573 159.551,225.918 159.175 C 226.205 158.861,226.644 157.239,226.442 157.239 C 226.372 157.239,226.167 157.665,225.986 158.184 M183.919 159.590 C 184.081 159.892,184.449 160.331,184.737 160.565 C 185.061 160.828,184.989 160.618,184.547 160.015 C 183.759 158.938,183.463 158.738,183.919 159.590 M100.340 159.772 C 100.249 160.010,100.227 160.449,100.292 160.748 C 100.365 161.087,100.468 160.924,100.565 160.315 C 100.729 159.293,100.623 159.037,100.340 159.772 M299.467 160.779 L 299.612 162.191 299.714 161.026 C 299.770 160.385,299.705 159.750,299.569 159.614 C 299.434 159.479,299.388 160.003,299.467 160.779 M224.817 160.997 C 224.458 161.736,224.227 162.341,224.304 162.341 C 224.507 162.341,225.720 159.903,225.584 159.767 C 225.521 159.705,225.176 160.258,224.817 160.997 M156.090 160.990 C 156.085 161.320,156.197 161.860,156.339 162.191 C 156.668 162.955,156.668 162.166,156.339 161.140 C 156.146 160.537,156.097 160.508,156.090 160.990 M175.138 161.365 C 175.214 161.654,175.546 162.228,175.877 162.641 C 176.458 163.366,176.458 163.349,175.855 162.116 C 175.204 160.785,174.902 160.468,175.138 161.365 M186.112 162.194 C 186.725 162.836,187.275 163.300,187.335 163.226 C 187.394 163.152,186.892 162.627,186.220 162.059 L 184.996 161.028 186.112 162.194 M213.489 162.416 L 212.303 163.691 213.578 162.505 C 214.764 161.402,214.992 161.140,214.765 161.140 C 214.716 161.140,214.142 161.714,213.489 162.416 M199.478 162.253 C 199.852 162.325,200.392 162.322,200.679 162.247 C 200.966 162.172,200.660 162.113,200.000 162.116 C 199.340 162.120,199.105 162.181,199.478 162.253 M156.660 163.448 C 156.728 164.227,157.197 164.888,157.218 164.234 C 157.230 163.872,157.104 163.493,156.939 163.391 C 156.774 163.289,156.649 163.315,156.660 163.448 M242.791 164.321 C 242.618 164.946,242.531 165.512,242.597 165.578 C 242.663 165.644,242.858 165.186,243.031 164.561 C 243.203 163.936,243.291 163.371,243.225 163.305 C 243.159 163.239,242.963 163.696,242.791 164.321 M176.942 164.441 C 177.234 164.936,177.584 165.341,177.718 165.341 C 177.852 165.341,177.663 164.936,177.297 164.441 C 176.931 163.946,176.582 163.541,176.521 163.541 C 176.460 163.541,176.649 163.946,176.942 164.441 M221.986 165.347 C 221.205 166.334,220.665 167.141,220.786 167.139 C 221.032 167.136,222.216 165.710,223.060 164.401 C 223.939 163.038,223.524 163.404,221.986 165.347 M100.830 165.216 C 100.832 165.698,100.964 166.294,101.121 166.542 C 101.317 166.848,101.350 166.609,101.224 165.791 C 100.997 164.308,100.824 164.056,100.830 165.216 M298.920 165.392 C 298.895 165.832,298.797 166.440,298.702 166.742 C 298.539 167.262,298.548 167.263,298.871 166.759 C 299.059 166.466,299.157 165.858,299.089 165.409 L 298.965 164.591 298.920 165.392 M178.456 166.382 C 178.752 166.790,179.120 167.127,179.272 167.132 C 179.425 167.138,179.232 166.804,178.845 166.392 C 177.945 165.434,177.762 165.430,178.456 166.382 M197.331 167.800 C 197.974 167.914,199.175 168.007,200.000 168.007 C 200.825 168.007,202.026 167.914,202.669 167.800 C 203.384 167.673,202.347 167.592,200.000 167.592 C 197.653 167.592,196.616 167.673,197.331 167.800 M158.490 168.657 C 158.665 169.161,158.865 169.517,158.933 169.449 C 159.081 169.301,158.515 167.742,158.313 167.742 C 158.235 167.742,158.314 168.154,158.490 168.657 M241.244 168.534 C 241.079 168.969,240.999 169.381,241.067 169.449 C 241.135 169.517,241.335 169.161,241.510 168.657 C 241.900 167.538,241.665 167.428,241.244 168.534 M217.004 170.308 C 215.081 171.912,215.263 172.105,217.223 170.541 C 219.152 169.004,219.219 168.940,218.890 168.958 C 218.733 168.966,217.884 169.574,217.004 170.308 M182.755 170.345 C 182.766 170.624,184.237 171.760,184.377 171.597 C 184.427 171.540,184.080 171.179,183.606 170.795 C 183.133 170.411,182.750 170.208,182.755 170.345 M184.846 171.888 C 184.846 172.183,186.645 173.245,186.830 173.060 C 186.908 172.982,186.494 172.635,185.909 172.290 C 185.325 171.945,184.846 171.765,184.846 171.888 M214.014 172.304 C 213.470 172.640,213.090 172.979,213.168 173.058 C 213.358 173.248,215.154 172.181,215.154 171.878 C 215.154 171.587,215.206 171.568,214.014 172.304 M237.430 175.619 C 235.107 179.119,234.439 179.940,231.636 182.732 C 229.108 185.251,228.803 185.511,225.897 187.632 C 223.564 189.334,223.148 189.858,225.281 188.407 C 230.745 184.690,236.490 178.512,239.125 173.518 C 239.853 172.137,239.219 172.924,237.430 175.619 M188.447 173.917 C 188.447 174.119,190.006 174.685,190.154 174.537 C 190.223 174.469,189.866 174.269,189.363 174.094 C 188.859 173.918,188.447 173.838,188.447 173.917 M210.503 174.204 C 209.749 174.567,209.724 174.608,210.353 174.457 C 210.765 174.357,211.231 174.156,211.388 174.010 C 211.777 173.646,211.563 173.693,210.503 174.204 M190.998 174.944 C 191.100 175.109,191.479 175.234,191.841 175.223 C 192.475 175.202,192.477 175.192,191.898 174.944 C 191.072 174.589,190.778 174.589,190.998 174.944 M102.968 175.244 C 102.968 175.491,103.084 175.964,103.226 176.294 C 103.388 176.672,103.484 176.728,103.484 176.444 C 103.484 176.197,103.368 175.724,103.226 175.394 C 103.063 175.016,102.968 174.960,102.968 175.244 M192.808 175.504 C 192.967 175.653,193.908 175.852,194.899 175.945 C 196.193 176.067,196.404 176.045,195.649 175.866 C 193.517 175.360,192.517 175.233,192.808 175.504 M205.101 175.703 L 203.301 176.098 205.101 175.937 C 206.092 175.848,207.030 175.656,207.187 175.510 C 207.535 175.185,207.423 175.195,205.101 175.703 M163.123 176.987 C 163.435 177.533,164.021 178.276,164.425 178.638 C 164.965 179.121,164.891 178.939,164.146 177.944 C 162.767 176.104,162.448 175.805,163.123 176.987 M168.038 182.891 C 168.595 183.466,169.100 183.888,169.160 183.828 C 169.293 183.696,167.472 181.845,167.210 181.845 C 167.108 181.845,167.480 182.316,168.038 182.891 M171.692 186.154 C 173.390 187.537,176.561 189.647,176.941 189.647 C 177.065 189.647,176.160 188.980,174.930 188.164 C 173.700 187.348,172.221 186.268,171.643 185.764 C 171.065 185.260,170.479 184.847,170.340 184.847 C 170.201 184.847,170.810 185.435,171.692 186.154 M293.458 185.638 C 293.292 186.074,293.212 186.486,293.280 186.554 C 293.348 186.622,293.548 186.265,293.723 185.762 C 294.113 184.642,293.878 184.533,293.458 185.638 M177.644 190.085 C 177.644 190.168,178.185 190.511,178.845 190.848 C 179.505 191.185,180.045 191.393,180.045 191.310 C 180.045 191.228,179.505 190.884,178.845 190.548 C 178.185 190.211,177.644 190.003,177.644 190.085 M221.080 190.568 C 220.461 190.895,219.955 191.229,219.955 191.311 C 219.955 191.445,222.325 190.337,222.631 190.061 C 222.976 189.748,222.075 190.043,221.080 190.568 M181.650 192.233 C 182.450 192.649,183.170 192.924,183.250 192.844 C 183.391 192.703,180.758 191.434,180.382 191.462 C 180.279 191.470,180.850 191.816,181.650 192.233 M217.903 192.096 C 217.186 192.425,216.667 192.761,216.748 192.842 C 216.829 192.923,217.550 192.649,218.350 192.233 C 220.074 191.336,219.764 191.242,217.903 192.096 M184.696 193.446 C 186.783 194.238,187.547 194.421,187.547 194.128 C 187.547 193.974,187.293 193.848,186.983 193.848 C 186.673 193.848,185.935 193.646,185.343 193.398 C 184.750 193.151,184.092 192.958,183.881 192.969 C 183.669 192.981,184.036 193.196,184.696 193.446 M214.182 193.521 C 212.588 194.105,211.901 194.574,213.238 194.166 C 214.881 193.665,216.503 192.991,216.054 192.995 C 215.806 192.998,214.964 193.235,214.182 193.521 M188.897 194.715 C 189.227 194.857,190.105 195.054,190.848 195.154 C 191.736 195.274,191.942 195.252,191.448 195.089 C 190.328 194.720,188.170 194.404,188.897 194.715 M209.302 194.911 L 207.802 195.316 209.152 195.144 C 209.895 195.050,210.773 194.863,211.103 194.729 C 212.038 194.351,210.984 194.457,209.302 194.911 M192.373 195.458 C 192.442 195.518,193.241 195.657,194.149 195.765 C 195.299 195.903,195.663 195.871,195.349 195.661 C 194.945 195.389,192.071 195.194,192.373 195.458 M204.651 195.661 C 204.337 195.871,204.701 195.903,205.851 195.765 C 206.759 195.657,207.558 195.518,207.627 195.458 C 207.929 195.194,205.055 195.389,204.651 195.661 M112.528 198.950 C 112.865 199.610,113.208 200.150,113.291 200.150 C 113.373 200.150,113.165 199.610,112.828 198.950 C 112.491 198.290,112.148 197.749,112.066 197.749 C 111.983 197.749,112.191 198.290,112.528 198.950 M118.203 207.902 C 118.364 208.204,118.733 208.643,119.021 208.877 C 119.345 209.140,119.272 208.931,118.831 208.327 C 118.043 207.250,117.747 207.050,118.203 207.902 M281.331 208.128 C 281.051 208.555,280.874 208.956,280.937 209.019 C 281.000 209.082,281.289 208.733,281.578 208.243 C 282.225 207.148,282.032 207.058,281.331 208.128 M279.669 210.428 C 279.227 211.031,279.155 211.241,279.479 210.977 C 279.971 210.578,280.715 209.452,280.487 209.452 C 280.430 209.452,280.062 209.891,279.669 210.428 M276.669 214.104 C 276.282 214.516,276.089 214.849,276.242 214.844 C 276.498 214.836,277.735 213.353,277.486 213.353 C 277.424 213.353,277.057 213.691,276.669 214.104 M124.831 216.204 C 125.391 216.782,125.917 217.254,125.999 217.254 C 126.082 217.254,125.691 216.782,125.131 216.204 C 124.571 215.626,124.046 215.154,123.963 215.154 C 123.881 215.154,124.271 215.626,124.831 216.204 M270.810 220.630 L 268.717 222.806 270.893 220.713 C 272.913 218.770,273.205 218.455,272.985 218.455 C 272.940 218.455,271.961 219.434,270.810 220.630 M129.620 221.230 C 130.863 222.555,131.133 222.793,131.133 222.568 C 131.133 222.520,130.491 221.879,129.707 221.143 L 128.282 219.805 129.620 221.230 M131.433 223.034 C 131.433 223.104,132.142 223.753,133.008 224.476 C 133.875 225.199,134.394 225.552,134.162 225.262 C 133.697 224.678,131.433 222.830,131.433 223.034 M138.610 229.066 C 139.010 229.558,140.135 230.302,140.135 230.074 C 140.135 230.017,139.696 229.649,139.160 229.256 C 138.556 228.815,138.347 228.742,138.610 229.066 M255.725 232.987 C 254.331 233.972,254.135 234.254,255.312 233.580 C 255.861 233.266,256.451 232.839,256.624 232.633 C 257.067 232.103,256.859 232.185,255.725 232.987 M226.707 246.362 C 226.328 246.524,226.273 246.619,226.557 246.619 C 226.804 246.619,227.277 246.503,227.607 246.362 C 227.985 246.199,228.041 246.104,227.757 246.104 C 227.509 246.104,227.037 246.220,226.707 246.362 M220.555 247.862 C 219.961 248.052,219.930 248.102,220.405 248.102 C 220.735 248.102,221.343 247.994,221.755 247.862 C 222.349 247.672,222.381 247.622,221.905 247.622 C 221.575 247.622,220.968 247.730,220.555 247.862 M181.545 248.458 C 181.793 248.620,182.322 248.755,182.721 248.758 C 183.684 248.764,183.440 248.593,182.146 248.356 C 181.407 248.220,181.229 248.250,181.545 248.458 M217.404 248.462 C 216.574 248.673,216.562 248.694,217.254 248.722 C 217.667 248.739,218.207 248.622,218.455 248.462 C 218.965 248.132,218.701 248.132,217.404 248.462 M186.422 249.269 C 186.710 249.345,187.183 249.345,187.472 249.269 C 187.761 249.194,187.524 249.132,186.947 249.132 C 186.369 249.132,186.133 249.194,186.422 249.269 M212.528 249.269 C 212.817 249.345,213.290 249.345,213.578 249.269 C 213.867 249.194,213.631 249.132,213.053 249.132 C 212.476 249.132,212.239 249.194,212.528 249.269 M200.150 249.962 L 194.299 250.132 200.000 250.162 C 203.136 250.178,206.107 250.088,206.602 249.962 C 207.368 249.767,207.391 249.738,206.752 249.763 C 206.339 249.779,203.368 249.869,200.150 249.962 " stroke="none" fill="#686868" fill-rule="evenodd"></path></g></svg>